{
  "asset": { "version": "2.0", "generator": "THREE.GLTFExporter r175" },
  "scenes": [{ "name": "AuxScene", "nodes": [14] }],
  "scene": 0,
  "nodes": [
    { "mesh": 0 },
    { "mesh": 1 },
    { "mesh": 2 },
    { "mesh": 3 },
    { "mesh": 4 },
    { "mesh": 5 },
    { "mesh": 6 },
    { "mesh": 7 },
    { "mesh": 8 },
    { "mesh": 9 },
    {
      "matrix": [
        0.1178511301977579, 0, -0.11785113019775792, 0, 0, -0.16666666666666666,
        0, 0, 0.11785113019775792, 0, 0.1178511301977579, 0, 0, 0, 0, 1
      ],
      "children": [0, 1, 2, 3, 4, 5, 6, 7, 8, 9]
    },
    { "children": [10] },
    {
      "matrix": [
        1, 0, 0, 0, 0, 1, 0, 0, 0, 0, 1, 0, -35.60586395892463,
        50.070571899414055, 35.134459466231505, 1
      ],
      "children": [11]
    },
    { "children": [12] },
    { "children": [13] }
  ],
  "bufferViews": [
    {
      "buffer": 0,
      "byteOffset": 0,
      "byteLength": 798336,
      "target": 34962,
      "byteStride": 12
    },
    {
      "buffer": 0,
      "byteOffset": 798336,
      "byteLength": 532224,
      "target": 34962,
      "byteStride": 8
    },
    {
      "buffer": 0,
      "byteOffset": 1330560,
      "byteLength": 798336,
      "target": 34962,
      "byteStride": 12
    },
    {
      "buffer": 0,
      "byteOffset": 2128896,
      "byteLength": 127872,
      "target": 34962,
      "byteStride": 12
    },
    {
      "buffer": 0,
      "byteOffset": 2256768,
      "byteLength": 85248,
      "target": 34962,
      "byteStride": 8
    },
    {
      "buffer": 0,
      "byteOffset": 2342016,
      "byteLength": 127872,
      "target": 34962,
      "byteStride": 12
    },
    {
      "buffer": 0,
      "byteOffset": 2469888,
      "byteLength": 10224,
      "target": 34962,
      "byteStride": 12
    },
    {
      "buffer": 0,
      "byteOffset": 2480112,
      "byteLength": 6816,
      "target": 34962,
      "byteStride": 8
    },
    {
      "buffer": 0,
      "byteOffset": 2486928,
      "byteLength": 10224,
      "target": 34962,
      "byteStride": 12
    },
    {
      "buffer": 0,
      "byteOffset": 2497152,
      "byteLength": 10224,
      "target": 34962,
      "byteStride": 12
    },
    {
      "buffer": 0,
      "byteOffset": 2507376,
      "byteLength": 6816,
      "target": 34962,
      "byteStride": 8
    },
    {
      "buffer": 0,
      "byteOffset": 2514192,
      "byteLength": 10224,
      "target": 34962,
      "byteStride": 12
    },
    {
      "buffer": 0,
      "byteOffset": 2524416,
      "byteLength": 158976,
      "target": 34962,
      "byteStride": 12
    },
    {
      "buffer": 0,
      "byteOffset": 2683392,
      "byteLength": 105984,
      "target": 34962,
      "byteStride": 8
    },
    {
      "buffer": 0,
      "byteOffset": 2789376,
      "byteLength": 158976,
      "target": 34962,
      "byteStride": 12
    },
    {
      "buffer": 0,
      "byteOffset": 2948352,
      "byteLength": 10224,
      "target": 34962,
      "byteStride": 12
    },
    {
      "buffer": 0,
      "byteOffset": 2958576,
      "byteLength": 6816,
      "target": 34962,
      "byteStride": 8
    },
    {
      "buffer": 0,
      "byteOffset": 2965392,
      "byteLength": 10224,
      "target": 34962,
      "byteStride": 12
    },
    {
      "buffer": 0,
      "byteOffset": 2975616,
      "byteLength": 10224,
      "target": 34962,
      "byteStride": 12
    },
    {
      "buffer": 0,
      "byteOffset": 2985840,
      "byteLength": 6816,
      "target": 34962,
      "byteStride": 8
    },
    {
      "buffer": 0,
      "byteOffset": 2992656,
      "byteLength": 10224,
      "target": 34962,
      "byteStride": 12
    },
    {
      "buffer": 0,
      "byteOffset": 3002880,
      "byteLength": 10224,
      "target": 34962,
      "byteStride": 12
    },
    {
      "buffer": 0,
      "byteOffset": 3013104,
      "byteLength": 6816,
      "target": 34962,
      "byteStride": 8
    },
    {
      "buffer": 0,
      "byteOffset": 3019920,
      "byteLength": 10224,
      "target": 34962,
      "byteStride": 12
    },
    {
      "buffer": 0,
      "byteOffset": 3030144,
      "byteLength": 10224,
      "target": 34962,
      "byteStride": 12
    },
    {
      "buffer": 0,
      "byteOffset": 3040368,
      "byteLength": 6816,
      "target": 34962,
      "byteStride": 8
    },
    {
      "buffer": 0,
      "byteOffset": 3047184,
      "byteLength": 10224,
      "target": 34962,
      "byteStride": 12
    },
    {
      "buffer": 0,
      "byteOffset": 3057408,
      "byteLength": 10224,
      "target": 34962,
      "byteStride": 12
    },
    {
      "buffer": 0,
      "byteOffset": 3067632,
      "byteLength": 6816,
      "target": 34962,
      "byteStride": 8
    },
    {
      "buffer": 0,
      "byteOffset": 3074448,
      "byteLength": 10224,
      "target": 34962,
      "byteStride": 12
    }
  ],
  "buffers": [
    {
      "byteLength": 3084672,
      "uri": "data:application/octet-stream;base64,"
    }
  ],
  "accessors": [
    {
      "bufferView": 0,
      "componentType": 5126,
      "count": 66528,
      "max": [521.388427734375, 477, 40.099998474121094],
      "min": [78.8629379272461, 123.84686279296875, -0.6000000238418579],
      "type": "VEC3"
    },
    {
      "bufferView": 1,
      "componentType": 5126,
      "count": 66528,
      "max": [516.8875122070312, 472.5],
      "min": [81.48912811279297, -39.099998474121094],
      "type": "VEC2"
    },
    {
      "bufferView": 2,
      "componentType": 5126,
      "count": 66528,
      "max": [1, 1, 1],
      "min": [-1, -1, -1],
      "type": "VEC3"
    },
    {
      "bufferView": 3,
      "componentType": 5126,
      "count": 10656,
      "max": [193.50778198242188, 285.6014404296875, 40.099998474121094],
      "min": [117.66392517089844, 151.57803344726562, -0.6000000238418579],
      "type": "VEC3"
    },
    {
      "bufferView": 4,
      "componentType": 5126,
      "count": 10656,
      "max": [283.431640625, 281],
      "min": [122.16426086425781, -39.099998474121094],
      "type": "VEC2"
    },
    {
      "bufferView": 5,
      "componentType": 5126,
      "count": 10656,
      "max": [0.9999999403953552, 0.996951162815094, 1],
      "min": [-0.999997079372406, -0.999640166759491, -1],
      "type": "VEC3"
    },
    {
      "bufferView": 6,
      "componentType": 5126,
      "count": 852,
      "max": [139.18649291992188, 276.0614318847656, 40.099998474121094],
      "min": [128.79624938964844, 264.5314636230469, -0.6000000238418579],
      "type": "VEC3"
    },
    {
      "bufferView": 7,
      "componentType": 5126,
      "count": 852,
      "max": [274.6106872558594, 271.4984436035156],
      "min": [130.37086486816406, -39.099998474121094],
      "type": "VEC2"
    },
    {
      "bufferView": 8,
      "componentType": 5126,
      "count": 852,
      "max": [0.9961155652999878, 0.9942962527275085, 1],
      "min": [-0.9996670484542847, -0.9995831847190857, -1],
      "type": "VEC3"
    },
    {
      "bufferView": 9,
      "componentType": 5126,
      "count": 852,
      "max": [126.65882873535156, 287.09393310546875, 40.099998474121094],
      "min": [114.80891418457031, 276.4872741699219, -0.6000000238418579],
      "type": "VEC3"
    },
    {
      "bufferView": 10,
      "componentType": 5126,
      "count": 852,
      "max": [285.3190002441406, 282.5634765625],
      "min": [115.6884765625, -39.099998474121094],
      "type": "VEC2"
    },
    {
      "bufferView": 11,
      "componentType": 5126,
      "count": 852,
      "max": [0.9947870373725891, 0.9970427751541138, 1],
      "min": [-0.9932939410209656, -0.9975208640098572, -1],
      "type": "VEC3"
    },
    {
      "bufferView": 12,
      "componentType": 5126,
      "count": 13248,
      "max": [491.90020751953125, 448.2110290527344, 40.099998474121094],
      "min": [416.5709533691406, 306.77252197265625, -0.6000000238418579],
      "type": "VEC3"
    },
    {
      "bufferView": 13,
      "componentType": 5126,
      "count": 13248,
      "max": [487.3999938964844, 443.6904296875],
      "min": [307.396728515625, -39.099998474121094],
      "type": "VEC2"
    },
    {
      "bufferView": 14,
      "componentType": 5126,
      "count": 13248,
      "max": [0.9999905824661255, 0.9995884895324707, 1],
      "min": [-0.9999880790710449, -0.9998978972434998, -1],
      "type": "VEC3"
    },
    {
      "bufferView": 15,
      "componentType": 5126,
      "count": 852,
      "max": [478.1910705566406, 326.09393310546875, 40.099998474121094],
      "min": [466.2330017089844, 315.4384460449219, -0.6000000238418579],
      "type": "VEC3"
    },
    {
      "bufferView": 16,
      "componentType": 5126,
      "count": 852,
      "max": [477.3115234375, 321.5634765625],
      "min": [317.1894836425781, -39.099998474121094],
      "type": "VEC2"
    },
    {
      "bufferView": 17,
      "componentType": 5126,
      "count": 852,
      "max": [0.9932959079742432, 0.9970428943634033, 1],
      "min": [-0.9473150968551636, -0.9922054409980774, -1],
      "type": "VEC3"
    },
    {
      "bufferView": 18,
      "componentType": 5126,
      "count": 852,
      "max": [483.455078125, 432.5244140625, 40.099998474121094],
      "min": [472.6488037109375, 420.8961181640625, -0.6000000238418579],
      "type": "VEC3"
    },
    {
      "bufferView": 19,
      "componentType": 5126,
      "count": 852,
      "max": [482.03948974609375, 427.87481689453125],
      "min": [422.19842529296875, -39.099998474121094],
      "type": "VEC2"
    },
    {
      "bufferView": 20,
      "componentType": 5126,
      "count": 852,
      "max": [0.9950565695762634, 0.9915661215782166, 1],
      "min": [-0.9875409007072449, -0.9996082186698914, -1],
      "type": "VEC3"
    },
    {
      "bufferView": 21,
      "componentType": 5126,
      "count": 852,
      "max": [108.10137176513672, 440.9119873046875, 40.099998474121094],
      "min": [97.72049713134766, 428.5601501464844, -0.6000000238418579],
      "type": "VEC3"
    },
    {
      "bufferView": 22,
      "componentType": 5126,
      "count": 852,
      "max": [439.32342529296875, 436.30780029296875],
      "min": [99.52508544921875, -39.099998474121094],
      "type": "VEC2"
    },
    {
      "bufferView": 23,
      "componentType": 5126,
      "count": 852,
      "max": [0.9999038577079773, 0.9917821884155273, 1],
      "min": [-0.9976472854614258, -0.9992940425872803, -1],
      "type": "VEC3"
    },
    {
      "bufferView": 24,
      "componentType": 5126,
      "count": 852,
      "max": [471.6588134765625, 442.09393310546875, 40.099998474121094],
      "min": [459.8089294433594, 431.4872741699219, -0.6000000238418579],
      "type": "VEC3"
    },
    {
      "bufferView": 25,
      "componentType": 5126,
      "count": 852,
      "max": [469.9434509277344, 437.5634765625],
      "min": [432.15887451171875, -39.099998474121094],
      "type": "VEC2"
    },
    {
      "bufferView": 26,
      "componentType": 5126,
      "count": 852,
      "max": [0.9947875142097473, 0.9970428943634033, 1],
      "min": [-0.9932959079742432, -0.997520923614502, -1],
      "type": "VEC3"
    },
    {
      "bufferView": 27,
      "componentType": 5126,
      "count": 852,
      "max": [422.2037658691406, 449.0614318847656, 40.099998474121094],
      "min": [411.8135070800781, 437.5314636230469, -0.6000000238418579],
      "type": "VEC3"
    },
    {
      "bufferView": 28,
      "componentType": 5126,
      "count": 852,
      "max": [447.6106872558594, 444.4984436035156],
      "min": [413.4745178222656, -39.099998474121094],
      "type": "VEC2"
    },
    {
      "bufferView": 29,
      "componentType": 5126,
      "count": 852,
      "max": [0.9996666312217712, 0.9942963719367981, 1],
      "min": [-0.9961168766021729, -0.9995831847190857, -1],
      "type": "VEC3"
    }
  ],
  "materials": [
    {
      "pbrMetallicRoughness": {
        "baseColorFactor": [
          0.6375968739867731, 0.6653872982754769, 0.7083757798856457, 1
        ],
        "metallicFactor": 0,
        "roughnessFactor": 0.3
      },
      "doubleSided": true,
      "extensions": {
        "KHR_materials_transmission": { "transmissionFactor": 1 },
        "KHR_materials_volume": {
          "thicknessFactor": 0,
          "attenuationColor": [1, 1, 1]
        }
      }
    }
  ],
  "meshes": [
    {
      "primitives": [
        {
          "mode": 4,
          "attributes": { "POSITION": 0, "TEXCOORD_0": 1, "NORMAL": 2 },
          "material": 0
        }
      ]
    },
    {
      "primitives": [
        {
          "mode": 4,
          "attributes": { "POSITION": 3, "TEXCOORD_0": 4, "NORMAL": 5 },
          "material": 0
        }
      ]
    },
    {
      "primitives": [
        {
          "mode": 4,
          "attributes": { "POSITION": 6, "TEXCOORD_0": 7, "NORMAL": 8 },
          "material": 0
        }
      ]
    },
    {
      "primitives": [
        {
          "mode": 4,
          "attributes": { "POSITION": 9, "TEXCOORD_0": 10, "NORMAL": 11 },
          "material": 0
        }
      ]
    },
    {
      "primitives": [
        {
          "mode": 4,
          "attributes": { "POSITION": 12, "TEXCOORD_0": 13, "NORMAL": 14 },
          "material": 0
        }
      ]
    },
    {
      "primitives": [
        {
          "mode": 4,
          "attributes": { "POSITION": 15, "TEXCOORD_0": 16, "NORMAL": 17 },
          "material": 0
        }
      ]
    },
    {
      "primitives": [
        {
          "mode": 4,
          "attributes": { "POSITION": 18, "TEXCOORD_0": 19, "NORMAL": 20 },
          "material": 0
        }
      ]
    },
    {
      "primitives": [
        {
          "mode": 4,
          "attributes": { "POSITION": 21, "TEXCOORD_0": 22, "NORMAL": 23 },
          "material": 0
        }
      ]
    },
    {
      "primitives": [
        {
          "mode": 4,
          "attributes": { "POSITION": 24, "TEXCOORD_0": 25, "NORMAL": 26 },
          "material": 0
        }
      ]
    },
    {
      "primitives": [
        {
          "mode": 4,
          "attributes": { "POSITION": 27, "TEXCOORD_0": 28, "NORMAL": 29 },
          "material": 0
        }
      ]
    }
  ],
  "extensionsUsed": ["KHR_materials_transmission", "KHR_materials_volume"]
}
